<svg width="16" height="16" viewBox="0 0 16 16" fill="none" xmlns="http://www.w3.org/2000/svg">
<g clip-path="url(#clip0)">
<path d="M7.99998 6.00021V8.00021L8.99998 9.00021M11.0066 11.5669L10.7733 14.1202C10.7433 14.4526 10.5896 14.7617 10.3428 14.9864C10.0959 15.211 9.77376 15.3349 9.43998 15.3335H6.55331C6.21953 15.3349 5.89738 15.211 5.65052 14.9864C5.40365 14.7617 5.25002 14.4526 5.21998 14.1202L4.98665 11.5669M4.99331 4.43355L5.22665 1.88021C5.25658 1.54893 5.40927 1.2408 5.65472 1.01632C5.90018 0.791828 6.22068 0.667194 6.55331 0.666881H9.45331C9.78709 0.665527 10.1092 0.789413 10.3561 1.01406C10.603 1.23871 10.7566 1.54779 10.7866 1.88021L11.02 4.43355M12.6666 8.00021C12.6666 10.5775 10.5773 12.6669 7.99998 12.6669C5.42265 12.6669 3.33331 10.5775 3.33331 8.00021C3.33331 5.42289 5.42265 3.33355 7.99998 3.33355C10.5773 3.33355 12.6666 5.42289 12.6666 8.00021Z" stroke="#7A7E80" stroke-width="1.5" stroke-linecap="round" stroke-linejoin="round"/>
</g>
<defs>
<clipPath id="clip0">
<rect width="16" height="16" fill="white"/>
</clipPath>
</defs>
</svg>
