<svg width="80" height="74" viewBox="0 0 80 74" fill="none" xmlns="http://www.w3.org/2000/svg">
<g clip-path="url(#clip0)">
<path d="M1.1777 0.1111C0.722149 0.255544 0.244372 0.755544 0.111038 1.2111C-0.0556283 1.8111 -0.0445172 58.9555 0.122149 59.4555C0.277705 59.9222 0.511038 60.1889 0.944371 60.4333C1.24437 60.5889 1.82215 60.6111 5.94437 60.6111C11.1221 60.6111 11.111 60.6111 11.4666 59.8889C11.6555 59.5222 11.6666 58.1889 11.6666 36.6889C11.6666 14.1778 11.6666 13.8889 11.8777 13.8889C12.0555 13.8889 12.1666 14.1111 12.4888 15.1333C17.2666 30.4889 20.8999 42.3222 23.1333 49.7778C24.6555 54.8778 26.011 59.2555 26.1333 59.5C26.2555 59.7444 26.5333 60.1222 26.7444 60.3444L27.1333 60.7555L24.611 66.6222C21.5333 73.7889 21.7333 73.3 21.8666 73.1667C21.9221 73.1 23.9777 69.5778 26.4221 65.3333L30.8777 57.6111L33.1666 50.0555C34.4333 45.9 36.2555 39.8778 37.2333 36.6667C38.211 33.4555 40.1666 27.0555 41.5666 22.4444C42.9777 17.8333 44.1666 14.0111 44.2221 13.9555C44.5333 13.6333 44.5555 14.1889 44.5555 23.9222C44.5555 29.9 44.5999 33.7778 44.6555 33.7111C44.711 33.6555 47.3333 29.1444 50.4888 23.6889L56.2221 13.7555V7.57777C56.2221 1.73332 56.1999 1.36666 56.011 0.922211C55.5888 0.0110997 56.0444 0.0555441 47.4666 0.0222108C40.1333 -1.14158e-05 39.8666 -1.14158e-05 39.3888 0.2111C39.0444 0.366655 38.8444 0.544433 38.7221 0.799989C38.6333 0.999989 37.9333 3.2111 37.1777 5.72221C32.2666 21.9667 28.511 34.3 28.4221 34.4667C28.3221 34.6778 27.9444 34.7333 27.8444 34.5667C27.811 34.5222 25.8777 28.1333 23.5444 20.3778C21.2221 12.6222 18.9777 5.14443 18.5555 3.76666C17.6999 0.933322 17.5888 0.677766 17.0888 0.3111L16.7221 0.0555441L9.11104 0.0333219C4.92215 0.0222108 1.35548 0.0555441 1.1777 0.1111Z" fill="white"/>
<path d="M64.5 3.8C63.5333 5.46666 60.6111 10.5333 57.9889 15.0556C55.3778 19.5778 53.2 23.3667 53.1667 23.4667C53.0889 23.6556 53.3889 23.6667 58.3778 23.6667C62.7778 23.6667 63.8222 23.7 64.5222 23.8444C66.4889 24.2444 67.4111 25.1778 67.8333 27.2C68.0667 28.3 68.0667 38.0555 67.8333 39.1667C67.4333 41.0333 66.6111 41.9 64.7445 42.4222C64.1333 42.5889 63.4 42.6111 58.0333 42.6111H52.0111L51.7556 42.3556L51.5 42.1L51.4445 34.2889L51.3889 26.4778L45.4778 36.7222L39.5556 46.9667V59.7889C39.5556 71.7778 39.5667 72.6333 39.7556 72.9889C39.8556 73.2 40.0889 73.4778 40.2556 73.6C40.5667 73.8222 40.7111 73.8333 45.3667 73.8667C50.6667 73.9 50.6333 73.9 51.1556 73.1889C51.3889 72.8778 51.3889 72.7667 51.4445 63.2556L51.5 53.6444L51.8111 53.3778L52.1222 53.1111H58.5556C62.2333 53.1111 65.6 53.0556 66.4111 52.9889C70.5667 52.6444 73.6111 51.3667 75.9889 48.9889C77.9333 47.0444 79.1111 44.6333 79.7 41.3889C79.9333 40.1111 79.9445 39.7667 79.9445 33.3333C79.9445 26.0555 79.9222 25.6778 79.3222 23.3444C78.9333 21.8333 77.9667 19.7778 77.1222 18.6556C75.1222 16.0222 72.1667 14.3222 68.3667 13.6C67.6556 13.4667 66.5111 13.4 64.1889 13.3667C61.2889 13.3111 60.9889 13.2889 61.0333 13.1222C61.0778 12.9778 63.0667 8.33333 65.9556 1.63333C66.1556 1.16666 66.3111 0.777774 66.2889 0.777774C66.2667 0.777774 65.4556 2.14444 64.5 3.8Z" fill="white"/>
</g>
<defs>
<clipPath id="clip0">
<rect width="80" height="74" fill="white"/>
</clipPath>
</defs>
</svg>
